<svg width="109" height="41" viewBox="0 0 109 41" fill="none" xmlns="http://www.w3.org/2000/svg">
<g clip-path="url(#clip0_2699_8161)">
<path d="M53.0512 9.53235L56.7919 1.21113C49.9956 -1.79084 42.0408 1.26379 39.0377 8.05771C38.1947 9.90102 37.8259 11.8497 37.8788 13.7456C35.2446 6.00376 27.9217 0.368466 19.2818 0.368466V11.7443C17.6486 5.21374 11.8009 0.315801 4.79411 0.315801H0V39.6048H14.6457L9.37747 29.1768C14.2769 27.5968 18.0174 23.5415 19.2291 18.4856V39.5519C30.0817 39.5519 38.8798 30.7568 38.8798 19.9076C38.8798 19.3809 38.8798 18.9069 38.8269 18.4329C39.9333 21.1189 41.8824 23.4889 44.5167 25.0162L38.4581 38.6041C46.6767 42.2908 56.3176 38.5512 60.0054 30.3355C63.4298 22.5936 60.3213 13.5877 53.0512 9.53235Z" fill="url(#paint0_linear_2699_8161)"/>
<path d="M55.8964 21.6981C55.8964 22.0141 55.791 22.2775 55.633 22.5408C55.4747 22.8041 55.2113 23.0148 54.9479 23.1201L56.1069 25.1214H55.1588L54.1053 23.2255H52.9459V25.1214H52.1558V20.1182H54.3157C54.5791 20.1182 54.8425 20.1708 55.0534 20.3288C55.2642 20.4868 55.4747 20.6448 55.633 20.8555C55.791 21.0661 55.8964 21.3295 55.8964 21.6981ZM54.2103 20.8028H52.9988V22.4355H54.4212C54.632 22.4355 54.8425 22.3301 54.9479 22.1721C55.0534 22.0141 55.1588 21.8034 55.1588 21.6454C55.1588 21.3821 55.0534 21.1715 54.8954 21.0135C54.6846 20.9081 54.4212 20.8028 54.2103 20.8028Z" fill="white"/>
<path d="M61.1119 20.0658C61.4803 20.0658 61.8491 20.1185 62.1125 20.2765C62.4288 20.3819 62.6397 20.5925 62.8502 20.8032C63.061 21.0138 63.219 21.2772 63.2719 21.5931C63.3769 21.9091 63.4298 22.2252 63.4298 22.5412C63.4298 23.0152 63.3244 23.4365 63.1664 23.8051C63.0081 24.1738 62.7447 24.4898 62.3759 24.7005C62.0075 24.9111 61.5858 25.0165 61.059 25.0165H59.1099V20.0132H61.1119V20.0658ZM61.1119 24.3318C61.4803 24.3318 61.7966 24.2265 62.0075 24.0685C62.218 23.9105 62.4288 23.6998 62.5342 23.4365C62.6397 23.1731 62.6922 22.8572 62.6922 22.5412C62.6922 22.2252 62.6397 21.9091 62.5342 21.6458C62.4288 21.3825 62.2709 21.1718 62.0075 21.0138C61.7441 20.8558 61.4803 20.7505 61.1119 20.7505H59.9526V24.2791H61.1119V24.3318Z" fill="white"/>
<path d="M66.6961 23.5945C66.9066 23.8578 67.1175 24.0684 67.3283 24.2264C67.5388 24.3845 67.8022 24.4371 68.171 24.4371C68.329 24.4371 68.4873 24.4371 68.6452 24.3845C68.8032 24.3318 68.9086 24.2791 69.0141 24.1738C69.1195 24.0684 69.172 23.9631 69.172 23.8051C69.172 23.5418 69.0666 23.3838 68.8561 23.2258C68.6453 23.0678 68.3819 23.0152 68.0131 22.9098C67.5388 22.8045 67.17 22.6465 66.9066 22.4358C66.6432 22.2251 66.4853 21.8565 66.4853 21.3825C66.4853 21.1192 66.5907 20.8558 66.7487 20.6452C66.9066 20.4345 67.1175 20.2765 67.3809 20.1712C67.6442 20.0658 67.9076 20.0132 68.2239 20.0132C68.6452 20.0132 68.9612 20.0658 69.2246 20.2239C69.4883 20.3819 69.7517 20.5925 69.9097 20.8558L69.3829 21.3825C69.2775 21.1718 69.0666 21.0138 68.9086 20.8558C68.7507 20.6978 68.4873 20.6452 68.2239 20.6452C67.9605 20.6452 67.7497 20.6978 67.5388 20.8032C67.3283 20.9085 67.2754 21.1192 67.2754 21.3298C67.2754 21.5931 67.3809 21.7511 67.5388 21.8565C67.7497 21.9618 67.9605 22.0671 68.2764 22.1198C68.5398 22.1725 68.8032 22.2778 69.0666 22.3832C69.33 22.4885 69.5408 22.6465 69.6988 22.8572C69.8568 23.0678 69.9622 23.2785 69.9622 23.5418C69.9622 24.0158 69.8042 24.3845 69.4883 24.7005C69.172 25.0165 68.6978 25.1218 68.171 25.1218C67.8022 25.1218 67.4334 25.0691 67.1175 24.9111C66.8012 24.7531 66.5378 24.4898 66.2744 24.1738L66.6961 23.5945Z" fill="white"/>
<path d="M55.4746 32.0209L55.0008 30.7568H52.8933L52.4191 32.0209H51.6289L53.578 27.0176H54.3686L56.3177 32.0209H55.4746ZM53.578 29.0189L53.2092 30.0195H54.7374L54.3686 28.9662C54.3157 28.8082 54.2631 28.5975 54.1577 28.4395C54.1052 28.2289 54.0523 28.0709 53.9469 27.8602C53.8943 28.0709 53.7889 28.2816 53.7364 28.4395C53.7364 28.6502 53.6309 28.8609 53.578 29.0189Z" fill="white"/>
<path d="M62.9028 28.5975C62.9028 28.9135 62.7973 29.1769 62.6394 29.4402C62.4814 29.7036 62.2177 29.9142 61.9543 30.0195L63.1133 32.0209H62.1651L61.1116 30.1249H59.9526V32.0209H59.1621V27.0176H61.3221C61.5855 27.0176 61.8492 27.0702 62.0597 27.2283C62.2706 27.3862 62.4814 27.5442 62.6394 27.7549C62.7973 27.9656 62.9028 28.2816 62.9028 28.5975ZM61.217 27.7549H60.0052V29.3876H61.4275C61.6384 29.3876 61.8492 29.2822 61.9543 29.1242C62.0597 28.9662 62.1651 28.7555 62.1651 28.5975C62.1651 28.3342 62.0597 28.1236 61.9018 27.9656C61.6909 27.8076 61.4804 27.7549 61.217 27.7549Z" fill="white"/>
<path d="M67.0122 32.0209V27.7549H65.5898V27.0176H69.2247V27.7549H67.8024V32.0209H67.0122Z" fill="white"/>
<path d="M78.3918 26.9648C78.6551 26.9648 78.9185 27.0175 79.1819 27.0702C79.4453 27.1755 79.6562 27.2808 79.8141 27.3862C79.9721 27.4915 80.13 27.6495 80.2355 27.8075L79.7087 28.3342C79.4978 28.1762 79.2873 28.0182 79.0765 27.9128C78.8656 27.8075 78.6023 27.7548 78.3389 27.7548C78.0229 27.7548 77.7067 27.8075 77.4433 27.9655C77.1799 28.1235 76.969 28.3342 76.8111 28.5975C76.6531 28.8608 76.6002 29.1768 76.6002 29.4928C76.6002 29.8088 76.7056 30.1248 76.864 30.4408C77.0219 30.7041 77.2324 30.9148 77.5487 31.1255C77.8646 31.3361 78.1284 31.3888 78.4443 31.3888C78.7077 31.3888 78.9185 31.3361 79.129 31.2308C79.3399 31.1255 79.4978 31.0201 79.6562 30.8621C79.7612 30.7042 79.8667 30.4935 79.8667 30.2828V30.2302H78.4443V29.4401H80.6568C80.6568 29.4928 80.6568 29.5981 80.6568 29.6508C80.6568 29.7035 80.6568 29.8088 80.6568 29.8615C80.6568 30.1248 80.6043 30.3882 80.5517 30.6515C80.4989 30.9148 80.3409 31.1255 80.1829 31.3361C79.9721 31.5994 79.7612 31.7574 79.4453 31.9154C79.129 32.0734 78.8131 32.1261 78.4443 32.1261C78.0755 32.1261 77.7596 32.0734 77.4433 31.9154C77.1274 31.7574 76.864 31.5994 76.6002 31.3888C76.3368 31.1781 76.1789 30.8621 76.0209 30.5462C75.9155 30.2302 75.8101 29.9141 75.8101 29.5455C75.8101 29.1768 75.8629 28.8608 76.0209 28.5448C76.1263 28.2288 76.3368 27.9655 76.5477 27.7548C76.7585 27.5442 77.0745 27.3335 77.3907 27.2282C77.7067 27.1228 78.0755 26.9648 78.3918 26.9648Z" fill="white"/>
<path d="M87.4 28.5975C87.4 28.9135 87.2946 29.1769 87.1366 29.4402C86.9786 29.7036 86.7153 29.9142 86.4519 30.0195L87.6108 32.0209H86.6624L85.6088 30.1249H84.4498V32.0209H83.6597V27.0176H85.8197C86.0831 27.0176 86.3464 27.0702 86.5573 27.2283C86.7678 27.3862 86.9786 27.5442 87.1366 27.7549C87.2946 27.9656 87.4 28.2816 87.4 28.5975ZM85.6617 27.7549H84.4498V29.3876H85.8722C86.0831 29.3876 86.2939 29.2822 86.399 29.1242C86.5044 28.9662 86.6098 28.7555 86.6098 28.5975C86.6098 28.3342 86.5044 28.1236 86.3464 27.9656C86.1356 27.8076 85.9251 27.7549 85.6617 27.7549Z" fill="white"/>
<path d="M95.1446 29.4928C95.1446 29.8614 95.092 30.1774 94.9866 30.4934C94.8812 30.8094 94.6703 31.0727 94.4598 31.3361C94.249 31.5467 93.9856 31.7574 93.6693 31.8627C93.3534 31.9681 93.0375 32.0734 92.6686 32.0734C92.2998 32.0734 91.9836 32.0207 91.6676 31.8627C91.3514 31.7574 91.088 31.5467 90.8775 31.3361C90.6666 31.1254 90.5087 30.8094 90.3503 30.4934C90.2453 30.1774 90.1924 29.8614 90.1924 29.4928C90.1924 29.1241 90.2453 28.8081 90.3503 28.4921C90.4558 28.1761 90.6137 27.9128 90.8775 27.6495C91.088 27.4388 91.3514 27.2281 91.6676 27.1228C91.9836 27.0174 92.2998 26.9121 92.6686 26.9121C93.0375 26.9121 93.3534 26.9648 93.6693 27.1228C93.9856 27.2281 94.249 27.4388 94.4598 27.6495C94.6703 27.8601 94.8286 28.1761 94.9866 28.4921C95.092 28.8081 95.1446 29.1241 95.1446 29.4928ZM94.3544 29.4928C94.3544 29.1241 94.3015 28.8081 94.1435 28.5448C93.9856 28.2814 93.8276 28.0708 93.5642 27.9128C93.3008 27.7548 93.0375 27.6495 92.7212 27.6495C92.4053 27.6495 92.089 27.7548 91.8256 27.9128C91.5622 28.0708 91.4042 28.2814 91.2459 28.5448C91.088 28.8081 91.0354 29.1241 91.0354 29.4928C91.0354 29.8614 91.088 30.1774 91.2459 30.4407C91.4042 30.7041 91.5622 30.9147 91.8256 31.0727C92.089 31.2307 92.3524 31.3361 92.7212 31.3361C93.0375 31.3361 93.3534 31.2307 93.5642 31.0727C93.8276 30.9147 93.9856 30.7041 94.1435 30.4407C94.3015 30.1774 94.3544 29.8614 94.3544 29.4928Z" fill="white"/>
<path d="M102.151 27.0176V30.1249C102.151 30.4935 102.046 30.8622 101.888 31.1255C101.73 31.3889 101.466 31.6522 101.15 31.8102C100.834 31.9682 100.518 32.0735 100.097 32.0735C99.7277 32.0735 99.3589 31.9682 99.043 31.8102C98.7271 31.6522 98.5162 31.3889 98.3054 31.1255C98.1474 30.8095 98.042 30.4935 98.042 30.1249V27.0176H98.8322V30.0195C98.8322 30.2829 98.885 30.4935 98.9905 30.7042C99.0955 30.9148 99.2539 31.0729 99.4643 31.1782C99.6752 31.2835 99.8332 31.3362 100.097 31.3362C100.307 31.3362 100.518 31.2835 100.729 31.1782C100.94 31.0729 101.098 30.9148 101.203 30.7042C101.308 30.4935 101.361 30.2829 101.361 30.0195V27.0176H102.151Z" fill="white"/>
<path d="M107.525 27.0176C107.789 27.0176 108.052 27.0702 108.262 27.2283C108.473 27.3862 108.684 27.5442 108.789 27.7549C108.948 27.9656 109 28.2289 109 28.5449C109 28.8082 108.948 29.0715 108.789 29.3349C108.631 29.5456 108.473 29.7562 108.262 29.9142C108.052 30.0722 107.789 30.1249 107.525 30.1249H106.261V32.0209H105.47V27.0176H107.525ZM107.525 29.3349C107.63 29.3349 107.789 29.2822 107.894 29.2296C107.999 29.1769 108.104 29.0715 108.157 28.9135C108.21 28.8082 108.262 28.6502 108.262 28.4922C108.262 28.2816 108.21 28.0709 108.052 27.9129C107.894 27.7549 107.736 27.7022 107.578 27.7022H106.313V29.2822H107.525V29.3349Z" fill="white"/>
</g>
<defs>
<linearGradient id="paint0_linear_2699_8161" x1="57.0899" y1="33.5053" x2="-1.33138" y2="6.80914" gradientUnits="userSpaceOnUse">
<stop stop-color="#F68B1F"/>
<stop offset="0.33" stop-color="#ED4D9B"/>
<stop offset="0.67" stop-color="#45C7F4"/>
<stop offset="1" stop-color="#7DC242"/>
</linearGradient>
<clipPath id="clip0_2699_8161">
<rect width="109" height="40.0262" fill="white"/>
</clipPath>
</defs>
</svg>
